# Blender v2.78 (sub 0) OBJ File: 'Game_Brücke.blend'
# www.blender.org
mtllib Bridge_3m_1Rail_COL.mtl
o Cube.007_Cube.035
v -0.254809 -0.112535 0.127342
v -0.254809 0.055792 0.127342
v -0.254809 -0.112535 -1.147077
v -0.254809 0.055792 -1.147077
v 0.915357 -0.370553 0.127342
v 0.925764 -0.202548 0.127342
v 0.915357 -0.370553 -1.147077
v 0.925763 -0.202548 -1.147077
v 2.000536 -0.192671 -1.147077
v 2.037936 -0.356790 -1.147077
v 2.037936 -0.356790 0.127342
v 2.000536 -0.192671 0.127342
v 3.193738 0.058905 -1.147077
v 3.205231 -0.109030 -1.147077
v 3.205231 -0.109030 0.127342
v 3.193738 0.058905 0.127342
v -0.238464 -0.216420 -0.948621
v -0.714606 0.601667 -0.948621
v -0.238464 -0.216420 -1.149660
v -0.714606 0.601667 -1.149660
v 0.003924 -0.224429 -0.900555
v 0.146247 0.822514 -0.948621
v 0.003924 -0.224429 -1.101594
v 0.146247 0.822514 -1.149660
v 3.423865 0.377459 -1.183053
v 3.192831 -0.187223 -0.927671
v 3.415266 0.433303 -1.062681
v 3.184232 -0.131379 -0.807299
v 3.301062 0.419810 -1.211474
v 3.070027 -0.144872 -0.956092
v 3.292462 0.475654 -1.091102
v 3.061428 -0.089028 -0.835720
v 0.085300 0.580164 -0.996829
v 0.085300 0.649321 -0.996829
v 0.085300 0.580164 -1.100135
v 0.085300 0.649321 -1.100135
v 0.723049 0.288262 -0.996829
v 0.753298 0.352890 -0.996829
v 0.723049 0.288262 -1.100135
v 0.753298 0.352890 -1.100135
v 1.614318 0.177094 -1.100135
v 1.606012 0.108272 -1.100135
v 1.606012 0.108272 -0.996829
v 1.614318 0.177094 -0.996829
v 2.378256 0.208066 -1.100135
v 2.391150 0.139717 -1.100135
v 2.391150 0.139717 -0.996829
v 2.378256 0.208066 -0.996829
v 3.278981 0.400260 -1.100135
v 3.300519 0.333374 -1.100135
v 3.300519 0.333374 -0.996829
v 3.278981 0.400260 -0.996829
v -0.172295 -0.192928 -1.101594
v -0.108722 -0.122792 -1.149660
v -0.551413 0.682322 -1.149660
v -0.010275 0.846839 -1.149660
v -0.108722 -0.122792 -0.948621
v -0.172295 -0.192928 -0.900555
v -0.010275 0.846839 -0.948621
v -0.551413 0.682322 -0.948621
v -0.008390 0.535533 -1.051498
v -0.424560 0.385068 -1.051498
v -0.008390 0.535533 -1.145488
v -0.424560 0.385068 -1.145488
v -0.040584 0.603052 -1.145488
v -0.447986 0.466886 -1.145488
v -0.040584 0.603052 -1.051498
v -0.447986 0.466886 -1.051498
v -0.161493 -0.030861 0.146542
v -0.161493 0.144706 0.146542
v -0.161493 -0.030861 -0.029024
v -0.161493 0.144706 -0.029024
v 0.014073 -0.030861 0.146542
v 0.014073 0.144706 0.146542
v 0.014073 -0.030861 -0.029024
v 0.014073 0.144706 -0.029024
v 3.541164 0.151797 -1.281897
v 3.300668 -0.408667 -1.090536
v 3.532021 0.194944 -1.161194
v 3.291525 -0.365520 -0.969833
v 3.423997 0.198065 -1.307311
v 3.183502 -0.362399 -1.115950
v 3.414855 0.241211 -1.186608
v 3.174359 -0.319253 -0.995247
vn -1.0000 0.0000 0.0000
vn 0.0000 0.0000 -1.0000
vn 0.0000 0.0000 1.0000
vn -0.2153 -0.9765 0.0000
vn 0.2138 0.9769 -0.0000
vn 0.0123 -0.9999 0.0000
vn -0.0092 1.0000 -0.0000
vn 0.9977 0.0683 -0.0000
vn 0.2076 -0.9782 0.0000
vn -0.2063 0.9785 -0.0000
vn -0.8643 -0.5030 0.0000
vn -0.0075 -0.0449 -0.9990
vn 0.9909 -0.1347 -0.0000
vn -0.1760 -0.9844 0.0000
vn -0.4431 0.8965 0.0000
vn -0.9351 0.2913 -0.2019
vn 0.0595 -0.4315 -0.9002
vn 0.9351 -0.2913 0.2019
vn -0.0595 0.4315 0.9002
vn -0.3781 -0.8498 0.3672
vn 0.3781 0.8498 -0.3672
vn -0.1997 -0.9798 0.0000
vn -0.4162 -0.9093 0.0000
vn 0.4056 0.9140 0.0000
vn -0.0405 0.9992 0.0000
vn 0.2000 0.9798 0.0000
vn 0.0400 -0.9992 0.0000
vn 0.9519 0.3065 0.0000
vn 0.2083 -0.9781 0.0000
vn -0.2087 0.9780 0.0000
vn 0.1536 0.9881 0.0000
vn 0.5852 -0.8109 0.0000
vn 0.3400 -0.9404 0.0000
vn 0.0075 0.0449 0.9990
vn -0.9881 0.1540 -0.0000
vn 0.8763 0.4818 0.0000
vn -0.9614 -0.2753 0.0000
vn 0.9026 0.4304 0.0000
vn -0.3170 0.9484 0.0000
vn 1.0000 0.0000 0.0000
vn 0.0000 -1.0000 0.0000
vn 0.0000 1.0000 0.0000
vn -0.9242 0.3321 -0.1887
vn 0.0656 -0.3475 -0.9354
vn 0.9242 -0.3321 0.1887
vn -0.0656 0.3475 0.9354
vn -0.4046 -0.8704 0.2805
vn 0.4046 0.8704 -0.2805
g Cube.007_Cube.035_None
usemtl None
s off
f 1//1 2//1 4//1 3//1
f 3//2 4//2 8//2 7//2
f 6//3 5//3 11//3 12//3
f 5//3 6//3 2//3 1//3
f 3//4 7//4 5//4 1//4
f 8//5 4//5 2//5 6//5
f 12//3 11//3 15//3 16//3
f 5//6 7//6 10//6 11//6
f 8//7 6//7 12//7 9//7
f 7//2 8//2 9//2 10//2
f 14//8 13//8 16//8 15//8
f 11//9 10//9 14//9 15//9
f 9//10 12//10 16//10 13//10
f 10//2 9//2 13//2 14//2
f 17//11 18//11 20//11 19//11
f 53//12 56//12 24//12 23//12
f 23//13 24//13 22//13 21//13
f 57//3 60//3 18//3 17//3
f 53//14 23//14 21//14 58//14
f 55//15 20//15 18//15 60//15
f 25//16 26//16 28//16 27//16
f 27//17 28//17 32//17 31//17
f 31//18 32//18 30//18 29//18
f 29//19 30//19 26//19 25//19
f 27//20 31//20 29//20 25//20
f 32//21 28//21 26//21 30//21
f 33//1 34//1 36//1 35//1
f 35//2 36//2 40//2 39//2
f 37//22 39//22 42//22 43//22
f 37//3 38//3 34//3 33//3
f 35//23 39//23 37//23 33//23
f 40//24 36//24 34//24 38//24
f 41//25 44//25 48//25 45//25
f 40//26 38//26 44//26 41//26
f 39//2 40//2 41//2 42//2
f 38//3 37//3 43//3 44//3
f 48//3 47//3 51//3 52//3
f 42//2 41//2 45//2 46//2
f 44//3 43//3 47//3 48//3
f 43//27 42//27 46//27 47//27
f 50//28 49//28 52//28 51//28
f 47//29 46//29 50//29 51//29
f 45//30 48//30 52//30 49//30
f 46//2 45//2 49//2 50//2
f 24//31 56//31 59//31 22//31
f 67//3 68//3 62//3 61//3
f 19//32 54//32 57//32 17//32
f 61//33 62//33 64//33 63//33
f 21//34 22//34 59//34 58//34
f 59//35 56//35 53//35 58//35
f 19//2 20//2 55//2 54//2
f 60//36 57//36 54//36 55//36
f 66//37 64//37 62//37 68//37
f 63//38 65//38 67//38 61//38
f 63//2 64//2 66//2 65//2
f 68//39 67//39 65//39 66//39
f 69//1 70//1 72//1 71//1
f 71//2 72//2 76//2 75//2
f 75//40 76//40 74//40 73//40
f 73//3 74//3 70//3 69//3
f 71//41 75//41 73//41 69//41
f 76//42 72//42 70//42 74//42
f 77//43 78//43 80//43 79//43
f 79//44 80//44 84//44 83//44
f 83//45 84//45 82//45 81//45
f 81//46 82//46 78//46 77//46
f 79//47 83//47 81//47 77//47
f 84//48 80//48 78//48 82//48
