# Blender v2.78 (sub 0) OBJ File: 'Game_Brücke.blend'
# www.blender.org
mtllib Holz_Brett2.mtl
o Basic_Holz.013_Cube.047
v 0.082561 0.027092 -1.138928
v -0.088123 0.028208 -1.137686
v -0.077061 0.026033 0.013082
v 0.093624 0.025011 0.011840
v 0.084524 -0.007379 -1.139234
v -0.089036 -0.006309 -1.137669
v -0.079949 -0.008374 0.013319
v 0.093610 -0.009518 0.011756
v 0.073137 0.035005 -0.855479
v 0.070170 0.035358 -0.563328
v 0.097237 0.033908 -0.270942
v -0.072924 0.035937 -0.850094
v -0.098942 0.036377 -0.562261
v -0.102919 0.035112 -0.274492
v 0.074415 0.000501 -0.855708
v 0.070849 0.000836 -0.563490
v 0.097818 -0.000616 -0.271093
v -0.074127 0.001429 -0.850045
v -0.101138 0.001919 -0.562101
v -0.105714 0.000698 -0.274265
v 0.003212 0.029410 -1.161832
v 0.009118 0.027253 0.023935
v 0.003999 -0.011043 -1.162020
v 0.007406 -0.013172 0.024025
v 0.017093 -0.001858 -0.878389
v -0.011885 -0.003587 -0.582416
v -0.017359 -0.002599 -0.286772
v 0.016664 0.038601 -0.878241
v -0.011026 0.040902 -0.582401
v -0.015832 0.037834 -0.286842
vt 0.4151 0.7359
vt 0.4858 0.7359
vt 0.4858 0.9717
vt 0.4151 0.9717
vt 0.2453 0.7359
vt 0.2453 0.9717
vt 0.1745 0.9717
vt 0.1745 0.7359
vt 0.2453 0.0001
vt 0.2453 0.0284
vt 0.1745 0.0284
vt 0.1745 0.0001
vt 0.1462 0.7359
vt 0.1462 0.9717
vt 0.2453 1.0000
vt 0.3160 0.9717
vt 0.3160 1.0000
vt 0.3160 0.7359
vt 0.3443 0.7359
vt 0.3443 0.9717
vt 0.3160 0.0284
vt 0.3443 0.0284
vt 0.3443 0.2642
vt 0.3160 0.2642
vt 0.3443 0.5000
vt 0.3160 0.5000
vt 0.1462 0.0284
vt 0.1745 0.2642
vt 0.1462 0.2642
vt 0.1745 0.5000
vt 0.1462 0.5000
vt 0.2453 0.2642
vt 0.2453 0.5000
vt 0.4150 0.0284
vt 0.4858 0.0284
vt 0.4858 0.2642
vt 0.4151 0.2642
vt 0.4858 0.5000
vt 0.4151 0.5000
vt 0.1745 1.0000
vt 0.3160 0.0001
vn 0.0030 0.9998 0.0186
vn -0.6980 0.7149 0.0402
vn -0.5639 0.5950 0.5727
vn 0.0124 0.6732 0.7393
vn -0.0099 -0.9998 -0.0151
vn -0.0005 -0.6986 0.7155
vn -0.6160 -0.5594 0.5545
vn -0.7629 -0.6463 0.0175
vn 0.0109 0.6506 -0.7593
vn 0.0097 -0.6695 -0.7427
vn -0.6699 -0.5750 -0.4696
vn -0.6540 0.5810 -0.4845
vn 0.6167 -0.5829 0.5290
vn 0.6167 0.5685 0.5445
vn 0.7355 -0.6763 -0.0410
vn 0.7236 0.6901 -0.0137
vn 0.6746 -0.5720 -0.4666
vn 0.6549 0.5816 -0.4824
vn 0.7103 0.7039 0.0062
vn 0.7352 -0.6774 0.0240
vn 0.7062 0.7076 -0.0250
vn 0.7177 -0.6957 -0.0286
vn -0.7232 -0.6906 -0.0075
vn -0.6871 0.7261 -0.0252
vn -0.7523 -0.6575 -0.0406
vn -0.7068 0.7065 -0.0360
vn 0.0012 -0.9998 0.0173
vn -0.0056 -1.0000 -0.0027
vn 0.0141 0.9997 -0.0197
vn 0.0070 1.0000 -0.0002
usemtl Wood
s 1
f 30/1/1 14/2/2 3/3/3 22/4/4
f 27/5/5 24/6/6 7/7/7 20/8/8
f 21/9/9 23/10/10 6/11/11 2/12/12
f 14/13/2 20/8/8 7/7/7 3/14/3
f 22/15/4 24/6/6 8/16/13 4/17/14
f 17/18/15 11/19/16 4/20/14 8/16/13
f 5/21/17 1/22/18 9/23/19 15/24/20
f 15/24/20 9/23/19 10/25/21 16/26/22
f 16/26/22 10/25/21 11/19/16 17/18/15
f 2/27/12 6/11/11 18/28/23 12/29/24
f 12/29/24 18/28/23 19/30/25 13/31/26
f 13/31/26 19/30/25 20/8/8 14/13/2
f 23/10/10 25/32/27 18/28/23 6/11/11
f 25/32/27 26/33/28 19/30/25 18/28/23
f 26/33/28 27/5/5 20/8/8 19/30/25
f 21/34/9 2/35/12 12/36/24 28/37/29
f 28/37/29 12/36/24 13/38/26 29/39/30
f 29/39/30 13/38/26 14/2/2 30/1/1
f 10/25/21 29/39/30 30/1/1 11/19/16
f 9/23/19 28/37/29 29/39/30 10/25/21
f 1/22/18 21/34/9 28/37/29 9/23/19
f 16/26/22 17/18/15 27/5/5 26/33/28
f 15/24/20 16/26/22 26/33/28 25/32/27
f 5/21/17 15/24/20 25/32/27 23/10/10
f 3/40/3 7/7/7 24/6/6 22/15/4
f 1/41/18 5/21/17 23/10/10 21/9/9
f 17/18/15 8/16/13 24/6/6 27/5/5
f 11/19/16 30/1/1 22/4/4 4/20/14
