# Blender v2.78 (sub 0) OBJ File: 'Game_Brücke.blend'
# www.blender.org
mtllib Holz_Brett1.mtl
o Basic_Holz.015_Cube.049
v 0.078924 0.002642 0.023438
v -0.070368 0.004617 0.023753
v -0.081406 0.020814 -0.976761
v 0.068529 0.022155 -0.978491
v 0.077635 0.032571 0.024023
v -0.070558 0.034570 0.024453
v 0.068104 0.052163 -0.977835
v 0.081647 0.009056 -0.478264
v -0.068910 0.009575 -0.477452
v 0.080735 0.039009 -0.477639
v -0.068725 0.039539 -0.476718
v -0.080738 0.050797 -0.975990
vt 0.3443 0.5000
vt 0.4858 0.5000
vt 0.4858 0.9717
vt 0.3443 0.9717
vt 0.3160 0.5000
vt 0.3160 0.9717
vt 0.1745 0.9717
vt 0.1745 0.5000
vt 0.3160 0.0001
vt 0.3160 0.0284
vt 0.1745 0.0284
vt 0.1745 0.0001
vt 0.1462 0.5000
vt 0.1462 0.9717
vt 0.1745 1.0000
vt 0.3160 1.0000
vt 0.3443 0.0284
vt 0.1462 0.0284
vt 0.4858 0.0284
vn 0.7183 -0.6954 -0.0196
vn -0.7060 -0.7082 -0.0051
vn -0.5928 -0.5620 -0.5768
vn 0.5726 -0.5550 -0.6033
vn 0.7026 0.7115 0.0058
vn 0.5591 0.6006 -0.5715
vn -0.5835 0.5912 -0.5567
vn -0.7018 0.7121 0.0202
vn 0.5866 -0.5813 0.5639
vn 0.5656 0.5735 0.5925
vn -0.5756 0.5721 0.5842
vn -0.5799 -0.5820 0.5701
usemtl Wood
s 1
f 8/1/1 9/2/2 3/3/3 4/4/4
f 10/5/5 7/6/6 12/7/7 11/8/8
f 1/9/9 5/10/10 6/11/11 2/12/12
f 9/13/2 11/8/8 12/7/7 3/14/3
f 3/15/3 12/7/7 7/6/6 4/16/4
f 10/5/5 8/1/1 4/4/4 7/6/6
f 5/10/10 1/17/9 8/1/1 10/5/5
f 2/18/12 6/11/11 11/8/8 9/13/2
f 5/10/10 10/5/5 11/8/8 6/11/11
f 1/17/9 2/19/12 9/2/2 8/1/1
