# Blender v2.78 (sub 0) OBJ File: 'Game_Brücke.blend'
# www.blender.org
mtllib Holz_Brett3.mtl
o Basic_Holz.010_Cube.045
v -0.044283 0.013333 -1.323249
v 0.028060 0.007434 -1.324284
v 0.041721 0.008114 0.055947
v -0.029869 0.011070 0.055992
v -0.042145 0.043472 -1.323293
v 0.029669 0.037607 -1.324384
v 0.042602 0.038307 0.055768
v -0.028666 0.041240 0.055851
v -0.071254 0.003283 -0.859966
v -0.070303 0.003543 -0.399611
v 0.001208 0.000009 -0.859950
v 0.001579 0.002520 -0.399096
v -0.070014 0.033477 -0.860996
v -0.069430 0.033713 -0.400681
v 0.001981 0.030174 -0.861033
v 0.002130 0.032692 -0.400207
vt 0.0926 0.6596
vt 0.1431 0.6596
vt 0.1431 0.9789
vt 0.0926 0.9789
vt 0.0716 0.6596
vt 0.0716 0.9789
vt 0.0211 0.9789
vt 0.0211 0.6596
vt 0.0716 0.0000
vt 0.0716 0.0210
vt 0.0211 0.0210
vt 0.0211 0.0000
vt 0.0001 0.6596
vt 0.0001 0.9789
vt 0.0211 0.9999
vt 0.0716 0.9999
vt 0.0926 0.0210
vt 0.0926 0.3403
vt 0.0716 0.3403
vt 0.0001 0.0210
vt 0.0211 0.3403
vt 0.0001 0.3403
vt 0.1431 0.0210
vt 0.1431 0.3403
vn -0.7358 -0.6760 0.0395
vn 0.6764 -0.7362 -0.0240
vn 0.5909 -0.5838 0.5567
vn -0.5670 -0.5560 0.6077
vn -0.6953 0.7183 0.0249
vn -0.5295 0.6073 0.5922
vn 0.6184 0.5617 0.5496
vn 0.7157 0.6973 -0.0374
vn -0.5973 -0.5390 -0.5939
vn -0.5254 0.6212 -0.5813
vn 0.6180 0.5477 -0.5640
vn 0.5642 -0.5982 -0.5690
vn -0.7418 -0.6701 -0.0260
vn -0.6836 0.7297 -0.0141
vn 0.7297 0.6832 0.0277
vn 0.6696 -0.7426 0.0125
usemtl Wood
s 1
f 10/1/1 12/2/2 3/3/3 4/4/4
f 14/5/5 8/6/6 7/7/7 16/8/8
f 1/9/9 5/10/10 6/11/11 2/12/12
f 12/13/2 16/8/8 7/7/7 3/14/3
f 3/15/3 7/7/7 8/6/6 4/16/4
f 14/5/5 10/1/1 4/4/4 8/6/6
f 5/10/10 1/17/9 9/18/13 13/19/14
f 13/19/14 9/18/13 10/1/1 14/5/5
f 2/20/12 6/11/11 15/21/15 11/22/16
f 11/22/16 15/21/15 16/8/8 12/13/2
f 5/10/10 13/19/14 15/21/15 6/11/11
f 13/19/14 14/5/5 16/8/8 15/21/15
f 1/17/9 2/23/12 11/24/16 9/18/13
f 9/18/13 11/24/16 12/2/2 10/1/1
